<svg xmlns="http://www.w3.org/2000/svg" xmlns:xlink="http://www.w3.org/1999/xlink" width="5000" zoomAndPan="magnify" viewBox="0 0 3750 3749.999967" height="5000" preserveAspectRatio="xMidYMid meet" version="1.2"><defs><clipPath id="b739187449"><path d="M 574 1749 L 1025 1749 L 1025 2188.898438 L 574 2188.898438 Z M 574 1749 "/></clipPath><clipPath id="343d74a746"><path d="M 1016 1761 L 1488 1761 L 1488 2188.898438 L 1016 2188.898438 Z M 1016 1761 "/></clipPath><clipPath id="ae16fbdc7a"><path d="M 1479 1749 L 1931 1749 L 1931 2188.898438 L 1479 2188.898438 Z M 1479 1749 "/></clipPath><clipPath id="cbdae1bfc4"><path d="M 2513 1749 L 2964 1749 L 2964 2188.898438 L 2513 2188.898438 Z M 2513 1749 "/></clipPath><clipPath id="3bbe3a1232"><path d="M 2965 1749 L 3662 1749 L 3662 2188.898438 L 2965 2188.898438 Z M 2965 1749 "/></clipPath><clipPath id="1e76ccac45"><path d="M 1966 1561.898438 L 2261 1561.898438 L 2261 2178 L 1966 2178 Z M 1966 1561.898438 "/></clipPath></defs><g id="57f9866dde"><rect x="0" width="3750" y="0" height="3749.999967" style="fill:#ffffff;fill-opacity:1;stroke:none;"/><rect x="0" width="3750" y="0" height="3749.999967" style="fill:#ffffff;fill-opacity:1;stroke:none;"/><path style=" stroke:none;fill-rule:nonzero;fill:#051c45;fill-opacity:1;" d="M 311.410156 1865.746094 C 244.347656 1865.746094 214.167969 1920.304688 214.167969 1984.097656 L 214.167969 2177.148438 L 95.128906 2177.148438 L 95.128906 1969.828125 C 95.128906 1848.960938 166.386719 1749.917969 311.410156 1749.917969 C 456.4375 1749.917969 529.367188 1848.121094 529.367188 1969.828125 L 529.367188 2177.148438 L 410.332031 2177.148438 L 410.332031 1984.097656 C 410.332031 1920.304688 379.3125 1865.746094 311.410156 1865.746094 Z M 311.410156 1865.746094 "/><g clip-rule="nonzero" clip-path="url(#b739187449)"><path style=" stroke:none;fill-rule:nonzero;fill:#051c45;fill-opacity:1;" d="M 799.066406 2188.0625 C 671.644531 2188.0625 574.398438 2089.015625 574.398438 1968.148438 C 574.398438 1848.121094 672.480469 1749.078125 799.066406 1749.078125 C 927.324219 1749.078125 1024.5625 1848.960938 1024.5625 1968.148438 C 1024.5625 2089.015625 926.484375 2188.0625 799.066406 2188.0625 Z M 799.066406 2076.425781 C 860.261719 2076.425781 905.53125 2027.742188 905.53125 1968.988281 C 905.53125 1910.234375 860.261719 1861.550781 799.066406 1861.550781 C 737.867188 1861.550781 693.4375 1910.234375 693.4375 1968.988281 C 693.4375 2027.742188 737.867188 2076.425781 799.066406 2076.425781 Z M 799.066406 2076.425781 "/></g><g clip-rule="nonzero" clip-path="url(#343d74a746)"><path style=" stroke:none;fill-rule:nonzero;fill:#051c45;fill-opacity:1;" d="M 1143.316406 2108.320312 L 1016.738281 1761.667969 L 1143.316406 1761.667969 L 1252.292969 2071.390625 L 1360.4375 1761.667969 L 1487.015625 1761.667969 L 1358.757812 2108.320312 C 1338.636719 2162.039062 1302.59375 2188.898438 1251.453125 2188.898438 C 1201.160156 2188.898438 1162.601562 2162.039062 1143.316406 2108.320312 Z M 1251.453125 2074.746094 C 1252.292969 2074.746094 1252.292969 2074.746094 1252.292969 2074.746094 Z M 1251.453125 2074.746094 "/></g><g clip-rule="nonzero" clip-path="url(#ae16fbdc7a)"><path style=" stroke:none;fill-rule:nonzero;fill:#051c45;fill-opacity:1;" d="M 1685.277344 2188.0625 C 1564.558594 2188.0625 1479.890625 2089.015625 1479.890625 1968.148438 C 1479.890625 1848.960938 1577.132812 1749.078125 1704.558594 1749.078125 C 1834.496094 1749.078125 1930.058594 1843.085938 1930.058594 1968.148438 L 1930.058594 2177.148438 L 1816.890625 2177.148438 L 1816.890625 2128.464844 C 1787.546875 2165.398438 1742.28125 2188.0625 1685.277344 2188.0625 Z M 1704.558594 2076.425781 C 1765.75 2076.425781 1811.019531 2027.742188 1811.019531 1968.988281 C 1811.019531 1910.234375 1765.75 1861.550781 1704.558594 1861.550781 C 1643.363281 1861.550781 1598.933594 1910.234375 1598.933594 1968.988281 C 1598.933594 2027.742188 1643.363281 2076.425781 1704.558594 2076.425781 Z M 1704.558594 2076.425781 "/></g><g clip-rule="nonzero" clip-path="url(#cbdae1bfc4)"><path style=" stroke:none;fill-rule:nonzero;fill:#051c45;fill-opacity:1;" d="M 2737.757812 2188.0625 C 2610.339844 2188.0625 2513.09375 2089.015625 2513.09375 1968.148438 C 2513.09375 1848.121094 2611.179688 1749.078125 2737.757812 1749.078125 C 2866.019531 1749.078125 2963.257812 1848.960938 2963.257812 1968.148438 C 2963.257812 2089.015625 2865.179688 2188.0625 2737.757812 2188.0625 Z M 2737.757812 2076.425781 C 2798.957031 2076.425781 2844.226562 2027.742188 2844.226562 1968.988281 C 2844.226562 1910.234375 2798.957031 1861.550781 2737.757812 1861.550781 C 2676.5625 1861.550781 2632.132812 1910.234375 2632.132812 1968.988281 C 2632.132812 2027.742188 2676.5625 2076.425781 2737.757812 2076.425781 Z M 2737.757812 2076.425781 "/></g><g clip-rule="nonzero" clip-path="url(#3bbe3a1232)"><path style=" stroke:none;fill-rule:nonzero;fill:#051c45;fill-opacity:1;" d="M 3152.425781 2188.898438 C 3106.320312 2188.898438 3059.375 2160.363281 3045.121094 2100.769531 L 2965.488281 1761.667969 L 3076.980469 1761.667969 L 3149.074219 2078.105469 C 3149.074219 2079.785156 3148.234375 2079.785156 3151.589844 2079.785156 C 3154.105469 2079.785156 3153.265625 2078.945312 3153.265625 2078.945312 L 3214.464844 1838.050781 C 3230.390625 1778.453125 3264.757812 1749.078125 3315.898438 1749.078125 C 3367.867188 1749.078125 3401.402344 1778.453125 3415.652344 1836.371094 L 3476.851562 2078.945312 C 3476.851562 2079.785156 3476.851562 2080.621094 3479.367188 2080.621094 C 3481.875 2080.621094 3481.875 2079.785156 3481.875 2078.105469 L 3551.460938 1761.667969 L 3661.273438 1761.667969 L 3584.988281 2100.769531 C 3571.574219 2161.203125 3523.789062 2188.898438 3478.527344 2188.898438 C 3429.90625 2188.898438 3393.855469 2159.523438 3378.765625 2100.769531 L 3316.734375 1853.15625 C 3316.734375 1853.15625 3317.574219 1852.316406 3315.058594 1852.316406 C 3313.382812 1852.316406 3314.21875 1853.15625 3314.21875 1853.15625 L 3252.183594 2100.769531 C 3237.933594 2159.523438 3201.050781 2188.898438 3152.425781 2188.898438 Z M 3152.425781 2188.898438 "/></g><path style=" stroke:none;fill-rule:nonzero;fill:#051c45;fill-opacity:1;" d="M 2334.839844 1572.8125 L 2450.523438 1570.292969 L 2450.523438 2177.148438 L 2331.484375 2177.148438 L 2331.484375 1681.089844 Z M 2334.839844 1572.8125 "/><g clip-rule="nonzero" clip-path="url(#1e76ccac45)"><path style=" stroke:none;fill-rule:nonzero;fill:#051c45;fill-opacity:1;" d="M 2159.632812 2177.148438 L 2040.59375 2177.148438 L 2040.59375 1861.550781 L 1966.824219 1861.550781 L 1966.824219 1761.667969 L 2040.59375 1761.667969 L 2040.59375 1754.113281 C 2040.59375 1650.03125 2115.203125 1561.898438 2236.761719 1561.898438 L 2257.714844 1664.300781 C 2187.296875 1664.300781 2159.632812 1697.875 2159.632812 1751.59375 L 2159.632812 1761.667969 L 2260.230469 1761.667969 L 2260.230469 1861.550781 L 2159.632812 1861.550781 Z M 2159.632812 2177.148438 "/></g></g></svg>